<mxfile host="65bd71144e" scale="4" border="0">
    <diagram id="zcjRhHv8CTLXdRoGBuVu" name="Page-1">
        <mxGraphModel dx="1258" dy="419" grid="1" gridSize="10" guides="1" tooltips="1" connect="1" arrows="1" fold="1" page="1" pageScale="1" pageWidth="583" pageHeight="827" math="1" shadow="0">
            <root>
                <mxCell id="0"/>
                <mxCell id="1" parent="0"/>
                <mxCell id="38" value="" style="group" vertex="1" connectable="0" parent="1">
                    <mxGeometry x="80" y="78.67" width="440" height="20" as="geometry"/>
                </mxCell>
                <mxCell id="39" value="" style="rounded=0;whiteSpace=wrap;html=1;fillColor=#DEF2DD;strokeColor=#B4C4B3;strokeWidth=0.5;" vertex="1" parent="38">
                    <mxGeometry y="15" width="8.627450980392156" height="5" as="geometry"/>
                </mxCell>
                <mxCell id="40" value="" style="rounded=0;whiteSpace=wrap;html=1;fillColor=#DEF2DD;strokeColor=#B4C4B3;strokeWidth=0.5;" vertex="1" parent="38">
                    <mxGeometry x="77.6470588235294" y="10" width="8.627450980392156" height="10" as="geometry"/>
                </mxCell>
                <mxCell id="41" value="" style="rounded=0;whiteSpace=wrap;html=1;fillColor=#DEF2DD;strokeColor=#B4C4B3;strokeWidth=0.5;" vertex="1" parent="38">
                    <mxGeometry x="86.27450980392156" y="10" width="8.627450980392156" height="10" as="geometry"/>
                </mxCell>
                <mxCell id="42" value="" style="rounded=0;whiteSpace=wrap;html=1;fillColor=#DEF2DD;strokeColor=#B4C4B3;strokeWidth=0.5;" vertex="1" parent="38">
                    <mxGeometry x="172.54901960784312" y="5" width="8.627450980392156" height="15" as="geometry"/>
                </mxCell>
                <mxCell id="43" value="" style="rounded=0;whiteSpace=wrap;html=1;fillColor=#DEF2DD;strokeColor=#B4C4B3;strokeWidth=0.5;" vertex="1" parent="38">
                    <mxGeometry x="181.17647058823528" y="5" width="8.627450980392156" height="15" as="geometry"/>
                </mxCell>
                <mxCell id="44" value="" style="rounded=0;whiteSpace=wrap;html=1;fillColor=#DEF2DD;strokeColor=#B4C4B3;strokeWidth=0.5;" vertex="1" parent="38">
                    <mxGeometry x="189.80392156862746" y="5" width="8.627450980392156" height="15" as="geometry"/>
                </mxCell>
                <mxCell id="45" value="" style="rounded=0;whiteSpace=wrap;html=1;fillColor=#DEF2DD;strokeColor=#B4C4B3;strokeWidth=0.5;" vertex="1" parent="38">
                    <mxGeometry x="198.43137254901958" y="5" width="8.627450980392156" height="15" as="geometry"/>
                </mxCell>
                <mxCell id="46" value="" style="rounded=0;whiteSpace=wrap;html=1;fillColor=#DEF2DD;strokeColor=#B4C4B3;strokeWidth=0.5;" vertex="1" parent="38">
                    <mxGeometry x="207.05882352941174" y="5" width="8.627450980392156" height="15" as="geometry"/>
                </mxCell>
                <mxCell id="47" value="" style="rounded=0;whiteSpace=wrap;html=1;fillColor=#DEF2DD;strokeColor=#B4C4B3;strokeWidth=0.5;" vertex="1" parent="38">
                    <mxGeometry x="215.6862745098039" y="5" width="8.627450980392156" height="15" as="geometry"/>
                </mxCell>
                <mxCell id="48" value="" style="rounded=0;whiteSpace=wrap;html=1;fillColor=#DEF2DD;strokeColor=#B4C4B3;strokeWidth=0.5;" vertex="1" parent="38">
                    <mxGeometry x="224.31372549019608" y="5" width="8.627450980392156" height="15" as="geometry"/>
                </mxCell>
                <mxCell id="49" value="" style="group;fillColor=#DEF2DD;strokeColor=#B4C4B3;container=0;strokeWidth=0.5;" vertex="1" connectable="0" parent="38">
                    <mxGeometry x="94.90196078431373" y="8" width="77.6470588235294" height="12" as="geometry"/>
                </mxCell>
                <mxCell id="50" value="" style="rounded=0;whiteSpace=wrap;html=1;fillColor=#DEF2DD;strokeColor=#B4C4B3;strokeWidth=0.5;" vertex="1" parent="38">
                    <mxGeometry x="8.627450980392156" y="13.5" width="8.627450980392156" height="6.5" as="geometry"/>
                </mxCell>
                <mxCell id="51" value="" style="rounded=0;whiteSpace=wrap;html=1;fillColor=#DEF2DD;strokeColor=#B4C4B3;strokeWidth=0.5;" vertex="1" parent="38">
                    <mxGeometry x="17.254901960784313" y="13.5" width="8.627450980392156" height="6.5" as="geometry"/>
                </mxCell>
                <mxCell id="52" value="" style="group;fillColor=#DEF2DD;strokeColor=#B4C4B3;container=0;strokeWidth=0.5;" vertex="1" connectable="0" parent="38">
                    <mxGeometry x="25.882352941176467" y="12" width="51.764705882352935" height="8" as="geometry"/>
                </mxCell>
                <mxCell id="53" value="" style="rounded=0;whiteSpace=wrap;html=1;fillColor=#DEF2DD;strokeColor=#B4C4B3;strokeWidth=0.5;" vertex="1" parent="38">
                    <mxGeometry x="414.1176470588235" width="8.627450980392156" height="20" as="geometry"/>
                </mxCell>
                <mxCell id="54" value="" style="rounded=0;whiteSpace=wrap;html=1;fillColor=#DEF2DD;strokeColor=#B4C4B3;strokeWidth=0.5;" vertex="1" parent="38">
                    <mxGeometry x="422.74509803921563" width="8.627450980392156" height="20" as="geometry"/>
                </mxCell>
                <mxCell id="55" value="" style="rounded=0;whiteSpace=wrap;html=1;fillColor=#DEF2DD;strokeColor=#B4C4B3;strokeWidth=0.5;" vertex="1" parent="38">
                    <mxGeometry x="431.3725490196078" width="8.627450980392156" height="20" as="geometry"/>
                </mxCell>
                <mxCell id="56" value="" style="rounded=0;whiteSpace=wrap;html=1;fillColor=#DEF2DD;strokeColor=#B4C4B3;strokeWidth=0.5;" vertex="1" parent="38">
                    <mxGeometry x="379.6078431372549" y="1" width="8.627450980392156" height="19" as="geometry"/>
                </mxCell>
                <mxCell id="57" value="" style="rounded=0;whiteSpace=wrap;html=1;fillColor=#DEF2DD;strokeColor=#B4C4B3;strokeWidth=0.5;" vertex="1" parent="38">
                    <mxGeometry x="388.2352941176471" y="1" width="8.627450980392156" height="19" as="geometry"/>
                </mxCell>
                <mxCell id="58" value="" style="rounded=0;whiteSpace=wrap;html=1;fillColor=#DEF2DD;strokeColor=#B4C4B3;strokeWidth=0.5;" vertex="1" parent="38">
                    <mxGeometry x="396.86274509803917" y="1" width="8.627450980392156" height="19" as="geometry"/>
                </mxCell>
                <mxCell id="59" value="" style="rounded=0;whiteSpace=wrap;html=1;fillColor=#DEF2DD;strokeColor=#B4C4B3;strokeWidth=0.5;" vertex="1" parent="38">
                    <mxGeometry x="405.4901960784313" y="1" width="8.627450980392156" height="19" as="geometry"/>
                </mxCell>
                <mxCell id="60" value="" style="rounded=0;whiteSpace=wrap;html=1;fillColor=#DEF2DD;strokeColor=#B4C4B3;strokeWidth=0.5;" vertex="1" parent="38">
                    <mxGeometry x="345.09803921568624" y="2" width="8.627450980392156" height="18" as="geometry"/>
                </mxCell>
                <mxCell id="61" value="" style="rounded=0;whiteSpace=wrap;html=1;fillColor=#DEF2DD;strokeColor=#B4C4B3;strokeWidth=0.5;" vertex="1" parent="38">
                    <mxGeometry x="353.7254901960784" y="2" width="8.627450980392156" height="18" as="geometry"/>
                </mxCell>
                <mxCell id="62" value="" style="rounded=0;whiteSpace=wrap;html=1;fillColor=#DEF2DD;strokeColor=#B4C4B3;strokeWidth=0.5;" vertex="1" parent="38">
                    <mxGeometry x="362.35294117647055" y="2" width="8.627450980392156" height="18" as="geometry"/>
                </mxCell>
                <mxCell id="63" value="" style="rounded=0;whiteSpace=wrap;html=1;fillColor=#DEF2DD;strokeColor=#B4C4B3;strokeWidth=0.5;" vertex="1" parent="38">
                    <mxGeometry x="370.9803921568627" y="2" width="8.627450980392156" height="18" as="geometry"/>
                </mxCell>
                <mxCell id="64" value="" style="rounded=0;whiteSpace=wrap;html=1;fillColor=#DEF2DD;strokeColor=#B4C4B3;strokeWidth=0.5;" vertex="1" parent="38">
                    <mxGeometry x="310.5882352941176" y="2.5" width="8.627450980392156" height="17.5" as="geometry"/>
                </mxCell>
                <mxCell id="65" value="" style="rounded=0;whiteSpace=wrap;html=1;fillColor=#DEF2DD;strokeColor=#B4C4B3;strokeWidth=0.5;" vertex="1" parent="38">
                    <mxGeometry x="319.2156862745098" y="2.5" width="8.627450980392156" height="17.5" as="geometry"/>
                </mxCell>
                <mxCell id="66" value="" style="rounded=0;whiteSpace=wrap;html=1;fillColor=#DEF2DD;strokeColor=#B4C4B3;strokeWidth=0.5;" vertex="1" parent="38">
                    <mxGeometry x="327.843137254902" y="2.5" width="8.627450980392156" height="17.5" as="geometry"/>
                </mxCell>
                <mxCell id="67" value="" style="rounded=0;whiteSpace=wrap;html=1;fillColor=#DEF2DD;strokeColor=#B4C4B3;strokeWidth=0.5;" vertex="1" parent="38">
                    <mxGeometry x="336.4705882352941" y="2.5" width="8.627450980392156" height="17.5" as="geometry"/>
                </mxCell>
                <mxCell id="68" value="" style="rounded=0;whiteSpace=wrap;html=1;fillColor=#DEF2DD;strokeColor=#B4C4B3;strokeWidth=0.5;" vertex="1" parent="38">
                    <mxGeometry x="276.078431372549" y="3.5" width="8.627450980392156" height="16.5" as="geometry"/>
                </mxCell>
                <mxCell id="69" value="" style="rounded=0;whiteSpace=wrap;html=1;fillColor=#DEF2DD;strokeColor=#B4C4B3;strokeWidth=0.5;" vertex="1" parent="38">
                    <mxGeometry x="284.70588235294116" y="3.5" width="8.627450980392156" height="16.5" as="geometry"/>
                </mxCell>
                <mxCell id="70" value="" style="rounded=0;whiteSpace=wrap;html=1;fillColor=#DEF2DD;strokeColor=#B4C4B3;strokeWidth=0.5;" vertex="1" parent="38">
                    <mxGeometry x="293.3333333333333" y="3.5" width="8.627450980392156" height="16.5" as="geometry"/>
                </mxCell>
                <mxCell id="71" value="" style="rounded=0;whiteSpace=wrap;html=1;fillColor=#DEF2DD;strokeColor=#B4C4B3;strokeWidth=0.5;" vertex="1" parent="38">
                    <mxGeometry x="301.96078431372547" y="3.5" width="8.627450980392156" height="16.5" as="geometry"/>
                </mxCell>
                <mxCell id="72" value="" style="rounded=0;whiteSpace=wrap;html=1;fillColor=#DEF2DD;strokeColor=#B4C4B3;strokeWidth=0.5;" vertex="1" parent="38">
                    <mxGeometry x="232.9411764705882" y="4" width="8.627450980392156" height="16" as="geometry"/>
                </mxCell>
                <mxCell id="73" value="" style="rounded=0;whiteSpace=wrap;html=1;fillColor=#DEF2DD;strokeColor=#B4C4B3;strokeWidth=0.5;" vertex="1" parent="38">
                    <mxGeometry x="241.56862745098036" y="4" width="8.627450980392156" height="16" as="geometry"/>
                </mxCell>
                <mxCell id="74" value="" style="rounded=0;whiteSpace=wrap;html=1;fillColor=#DEF2DD;strokeColor=#B4C4B3;strokeWidth=0.5;" vertex="1" parent="38">
                    <mxGeometry x="250.1960784313725" y="4" width="8.627450980392156" height="16" as="geometry"/>
                </mxCell>
                <mxCell id="75" value="" style="rounded=0;whiteSpace=wrap;html=1;fillColor=#DEF2DD;strokeColor=#B4C4B3;strokeWidth=0.5;" vertex="1" parent="38">
                    <mxGeometry x="258.8235294117647" y="4" width="8.627450980392156" height="16" as="geometry"/>
                </mxCell>
                <mxCell id="76" value="" style="rounded=0;whiteSpace=wrap;html=1;fillColor=#DEF2DD;strokeColor=#B4C4B3;strokeWidth=0.5;" vertex="1" parent="38">
                    <mxGeometry x="267.4509803921569" y="4" width="8.627450980392156" height="16" as="geometry"/>
                </mxCell>
                <mxCell id="77" value="" style="rounded=0;whiteSpace=wrap;html=1;fillColor=#DEF2DD;strokeColor=#B4C4B3;strokeWidth=0.5;" vertex="1" parent="38">
                    <mxGeometry x="94.90196078431373" y="8" width="8.627450980392156" height="12" as="geometry"/>
                </mxCell>
                <mxCell id="78" value="" style="rounded=0;whiteSpace=wrap;html=1;fillColor=#DEF2DD;strokeColor=#B4C4B3;strokeWidth=0.5;" vertex="1" parent="38">
                    <mxGeometry x="103.52941176470587" y="8" width="8.627450980392156" height="12" as="geometry"/>
                </mxCell>
                <mxCell id="79" value="" style="rounded=0;whiteSpace=wrap;html=1;fillColor=#DEF2DD;strokeColor=#B4C4B3;strokeWidth=0.5;" vertex="1" parent="38">
                    <mxGeometry x="112.15686274509804" y="8" width="8.627450980392156" height="12" as="geometry"/>
                </mxCell>
                <mxCell id="80" value="" style="rounded=0;whiteSpace=wrap;html=1;fillColor=#DEF2DD;strokeColor=#B4C4B3;strokeWidth=0.5;" vertex="1" parent="38">
                    <mxGeometry x="120.78431372549018" y="8" width="8.627450980392156" height="12" as="geometry"/>
                </mxCell>
                <mxCell id="81" value="" style="group;fillColor=#DEF2DD;strokeColor=#B4C4B3;container=0;strokeWidth=0.5;" vertex="1" connectable="0" parent="38">
                    <mxGeometry x="129.41176470588235" y="6.5" width="43.13725490196078" height="13.5" as="geometry"/>
                </mxCell>
                <mxCell id="82" value="" style="rounded=0;whiteSpace=wrap;html=1;fillColor=#DEF2DD;strokeColor=#B4C4B3;strokeWidth=0.5;" vertex="1" parent="38">
                    <mxGeometry x="129.41176470588235" y="6.5" width="8.627450980392156" height="13.5" as="geometry"/>
                </mxCell>
                <mxCell id="83" value="" style="rounded=0;whiteSpace=wrap;html=1;fillColor=#DEF2DD;strokeColor=#B4C4B3;strokeWidth=0.5;" vertex="1" parent="38">
                    <mxGeometry x="138.0392156862745" y="6.5" width="8.627450980392156" height="13.5" as="geometry"/>
                </mxCell>
                <mxCell id="84" value="" style="rounded=0;whiteSpace=wrap;html=1;fillColor=#DEF2DD;strokeColor=#B4C4B3;strokeWidth=0.5;" vertex="1" parent="38">
                    <mxGeometry x="146.66666666666666" y="6.5" width="8.627450980392156" height="13.5" as="geometry"/>
                </mxCell>
                <mxCell id="85" value="" style="rounded=0;whiteSpace=wrap;html=1;fillColor=#DEF2DD;strokeColor=#B4C4B3;strokeWidth=0.5;" vertex="1" parent="38">
                    <mxGeometry x="155.2941176470588" y="6.5" width="8.627450980392156" height="13.5" as="geometry"/>
                </mxCell>
                <mxCell id="86" value="" style="rounded=0;whiteSpace=wrap;html=1;fillColor=#DEF2DD;strokeColor=#B4C4B3;strokeWidth=0.5;" vertex="1" parent="38">
                    <mxGeometry x="163.921568627451" y="6.5" width="8.627450980392156" height="13.5" as="geometry"/>
                </mxCell>
                <mxCell id="87" value="" style="rounded=0;whiteSpace=wrap;html=1;fillColor=#DEF2DD;strokeColor=#B4C4B3;strokeWidth=0.5;" vertex="1" parent="38">
                    <mxGeometry x="25.882352941176467" y="12" width="8.627450980392156" height="8" as="geometry"/>
                </mxCell>
                <mxCell id="88" value="" style="rounded=0;whiteSpace=wrap;html=1;fillColor=#DEF2DD;strokeColor=#B4C4B3;strokeWidth=0.5;" vertex="1" parent="38">
                    <mxGeometry x="34.509803921568626" y="12" width="8.627450980392156" height="8" as="geometry"/>
                </mxCell>
                <mxCell id="89" value="" style="rounded=0;whiteSpace=wrap;html=1;fillColor=#DEF2DD;strokeColor=#B4C4B3;strokeWidth=0.5;" vertex="1" parent="38">
                    <mxGeometry x="43.13725490196078" y="12" width="8.627450980392156" height="8" as="geometry"/>
                </mxCell>
                <mxCell id="90" value="" style="group;fillColor=#DEF2DD;strokeColor=#B4C4B3;container=0;strokeWidth=0.5;" vertex="1" connectable="0" parent="38">
                    <mxGeometry x="51.764705882352935" y="11" width="25.882352941176467" height="9" as="geometry"/>
                </mxCell>
                <mxCell id="91" value="" style="rounded=0;whiteSpace=wrap;html=1;fillColor=#DEF2DD;strokeColor=#B4C4B3;strokeWidth=0.5;" vertex="1" parent="38">
                    <mxGeometry x="51.764705882352935" y="11" width="8.627450980392156" height="9" as="geometry"/>
                </mxCell>
                <mxCell id="92" value="" style="rounded=0;whiteSpace=wrap;html=1;fillColor=#DEF2DD;strokeColor=#B4C4B3;strokeWidth=0.5;" vertex="1" parent="38">
                    <mxGeometry x="60.39215686274509" y="11" width="8.627450980392156" height="9" as="geometry"/>
                </mxCell>
                <mxCell id="93" value="" style="rounded=0;whiteSpace=wrap;html=1;fillColor=#DEF2DD;strokeColor=#B4C4B3;strokeWidth=0.5;" vertex="1" parent="38">
                    <mxGeometry x="69.01960784313725" y="11" width="8.627450980392156" height="9" as="geometry"/>
                </mxCell>
                <mxCell id="94" value="" style="whiteSpace=wrap;html=1;fillColor=#D5E8D455;strokeColor=#82b366;sketch=0;" vertex="1" parent="38">
                    <mxGeometry width="440" height="20" as="geometry"/>
                </mxCell>
                <mxCell id="8" value="" style="whiteSpace=wrap;html=1;fontFamily=Courier New;sketch=1;fillColor=#f8cecc;strokeColor=#b85450;rotation=90;strokeWidth=1;perimeterSpacing=1;shadow=1;opacity=50;" parent="1" vertex="1">
                    <mxGeometry x="286.06" y="-133.38" width="28.37" height="444.1" as="geometry"/>
                </mxCell>
                <mxCell id="36" value="" style="group" vertex="1" connectable="0" parent="1">
                    <mxGeometry x="80" y="191.38" width="440" height="20" as="geometry"/>
                </mxCell>
                <mxCell id="QE186DLQYvyTarsqXEFY-33" value="" style="rounded=0;whiteSpace=wrap;html=1;fillColor=#DEF2DD;strokeColor=#B4C4B3;strokeWidth=0.5;" parent="36" vertex="1">
                    <mxGeometry y="15" width="8.627450980392156" height="5" as="geometry"/>
                </mxCell>
                <mxCell id="QE186DLQYvyTarsqXEFY-34" value="" style="rounded=0;whiteSpace=wrap;html=1;fillColor=#DEF2DD;strokeColor=#B4C4B3;strokeWidth=0.5;" parent="36" vertex="1">
                    <mxGeometry x="77.6470588235294" y="10" width="8.627450980392156" height="10" as="geometry"/>
                </mxCell>
                <mxCell id="QE186DLQYvyTarsqXEFY-35" value="" style="rounded=0;whiteSpace=wrap;html=1;fillColor=#DEF2DD;strokeColor=#B4C4B3;strokeWidth=0.5;" parent="36" vertex="1">
                    <mxGeometry x="86.27450980392156" y="10" width="8.627450980392156" height="10" as="geometry"/>
                </mxCell>
                <mxCell id="QE186DLQYvyTarsqXEFY-36" value="" style="rounded=0;whiteSpace=wrap;html=1;fillColor=#DEF2DD;strokeColor=#B4C4B3;strokeWidth=0.5;" parent="36" vertex="1">
                    <mxGeometry x="172.54901960784312" y="5" width="8.627450980392156" height="15" as="geometry"/>
                </mxCell>
                <mxCell id="QE186DLQYvyTarsqXEFY-37" value="" style="rounded=0;whiteSpace=wrap;html=1;fillColor=#DEF2DD;strokeColor=#B4C4B3;strokeWidth=0.5;" parent="36" vertex="1">
                    <mxGeometry x="181.17647058823528" y="5" width="8.627450980392156" height="15" as="geometry"/>
                </mxCell>
                <mxCell id="QE186DLQYvyTarsqXEFY-38" value="" style="rounded=0;whiteSpace=wrap;html=1;fillColor=#DEF2DD;strokeColor=#B4C4B3;strokeWidth=0.5;" parent="36" vertex="1">
                    <mxGeometry x="189.80392156862746" y="5" width="8.627450980392156" height="15" as="geometry"/>
                </mxCell>
                <mxCell id="QE186DLQYvyTarsqXEFY-39" value="" style="rounded=0;whiteSpace=wrap;html=1;fillColor=#DEF2DD;strokeColor=#B4C4B3;strokeWidth=0.5;" parent="36" vertex="1">
                    <mxGeometry x="198.43137254901958" y="5" width="8.627450980392156" height="15" as="geometry"/>
                </mxCell>
                <mxCell id="QE186DLQYvyTarsqXEFY-40" value="" style="rounded=0;whiteSpace=wrap;html=1;fillColor=#DEF2DD;strokeColor=#B4C4B3;strokeWidth=0.5;" parent="36" vertex="1">
                    <mxGeometry x="207.05882352941174" y="5" width="8.627450980392156" height="15" as="geometry"/>
                </mxCell>
                <mxCell id="QE186DLQYvyTarsqXEFY-41" value="" style="rounded=0;whiteSpace=wrap;html=1;fillColor=#DEF2DD;strokeColor=#B4C4B3;strokeWidth=0.5;" parent="36" vertex="1">
                    <mxGeometry x="215.6862745098039" y="5" width="8.627450980392156" height="15" as="geometry"/>
                </mxCell>
                <mxCell id="QE186DLQYvyTarsqXEFY-42" value="" style="rounded=0;whiteSpace=wrap;html=1;fillColor=#DEF2DD;strokeColor=#B4C4B3;strokeWidth=0.5;" parent="36" vertex="1">
                    <mxGeometry x="224.31372549019608" y="5" width="8.627450980392156" height="15" as="geometry"/>
                </mxCell>
                <mxCell id="QE186DLQYvyTarsqXEFY-43" value="" style="group;fillColor=#DEF2DD;strokeColor=#B4C4B3;container=0;strokeWidth=0.5;" parent="36" vertex="1" connectable="0">
                    <mxGeometry x="94.90196078431373" y="8" width="77.6470588235294" height="12" as="geometry"/>
                </mxCell>
                <mxCell id="QE186DLQYvyTarsqXEFY-44" value="" style="rounded=0;whiteSpace=wrap;html=1;fillColor=#DEF2DD;strokeColor=#B4C4B3;strokeWidth=0.5;" parent="36" vertex="1">
                    <mxGeometry x="8.627450980392156" y="13.5" width="8.627450980392156" height="6.5" as="geometry"/>
                </mxCell>
                <mxCell id="QE186DLQYvyTarsqXEFY-45" value="" style="rounded=0;whiteSpace=wrap;html=1;fillColor=#DEF2DD;strokeColor=#B4C4B3;strokeWidth=0.5;" parent="36" vertex="1">
                    <mxGeometry x="17.254901960784313" y="13.5" width="8.627450980392156" height="6.5" as="geometry"/>
                </mxCell>
                <mxCell id="QE186DLQYvyTarsqXEFY-46" value="" style="group;fillColor=#DEF2DD;strokeColor=#B4C4B3;container=0;strokeWidth=0.5;" parent="36" vertex="1" connectable="0">
                    <mxGeometry x="25.882352941176467" y="12" width="51.764705882352935" height="8" as="geometry"/>
                </mxCell>
                <mxCell id="QE186DLQYvyTarsqXEFY-47" value="" style="rounded=0;whiteSpace=wrap;html=1;fillColor=#DEF2DD;strokeColor=#B4C4B3;strokeWidth=0.5;" parent="36" vertex="1">
                    <mxGeometry x="414.1176470588235" width="8.627450980392156" height="20" as="geometry"/>
                </mxCell>
                <mxCell id="QE186DLQYvyTarsqXEFY-48" value="" style="rounded=0;whiteSpace=wrap;html=1;fillColor=#DEF2DD;strokeColor=#B4C4B3;strokeWidth=0.5;" parent="36" vertex="1">
                    <mxGeometry x="422.74509803921563" width="8.627450980392156" height="20" as="geometry"/>
                </mxCell>
                <mxCell id="QE186DLQYvyTarsqXEFY-49" value="" style="rounded=0;whiteSpace=wrap;html=1;fillColor=#DEF2DD;strokeColor=#B4C4B3;strokeWidth=0.5;" parent="36" vertex="1">
                    <mxGeometry x="431.3725490196078" width="8.627450980392156" height="20" as="geometry"/>
                </mxCell>
                <mxCell id="QE186DLQYvyTarsqXEFY-50" value="" style="rounded=0;whiteSpace=wrap;html=1;fillColor=#DEF2DD;strokeColor=#B4C4B3;strokeWidth=0.5;" parent="36" vertex="1">
                    <mxGeometry x="379.6078431372549" y="1" width="8.627450980392156" height="19" as="geometry"/>
                </mxCell>
                <mxCell id="QE186DLQYvyTarsqXEFY-51" value="" style="rounded=0;whiteSpace=wrap;html=1;fillColor=#DEF2DD;strokeColor=#B4C4B3;strokeWidth=0.5;" parent="36" vertex="1">
                    <mxGeometry x="388.2352941176471" y="1" width="8.627450980392156" height="19" as="geometry"/>
                </mxCell>
                <mxCell id="QE186DLQYvyTarsqXEFY-52" value="" style="rounded=0;whiteSpace=wrap;html=1;fillColor=#DEF2DD;strokeColor=#B4C4B3;strokeWidth=0.5;" parent="36" vertex="1">
                    <mxGeometry x="396.86274509803917" y="1" width="8.627450980392156" height="19" as="geometry"/>
                </mxCell>
                <mxCell id="QE186DLQYvyTarsqXEFY-53" value="" style="rounded=0;whiteSpace=wrap;html=1;fillColor=#DEF2DD;strokeColor=#B4C4B3;strokeWidth=0.5;" parent="36" vertex="1">
                    <mxGeometry x="405.4901960784313" y="1" width="8.627450980392156" height="19" as="geometry"/>
                </mxCell>
                <mxCell id="QE186DLQYvyTarsqXEFY-54" value="" style="rounded=0;whiteSpace=wrap;html=1;fillColor=#DEF2DD;strokeColor=#B4C4B3;strokeWidth=0.5;" parent="36" vertex="1">
                    <mxGeometry x="345.09803921568624" y="2" width="8.627450980392156" height="18" as="geometry"/>
                </mxCell>
                <mxCell id="QE186DLQYvyTarsqXEFY-55" value="" style="rounded=0;whiteSpace=wrap;html=1;fillColor=#DEF2DD;strokeColor=#B4C4B3;strokeWidth=0.5;" parent="36" vertex="1">
                    <mxGeometry x="353.7254901960784" y="2" width="8.627450980392156" height="18" as="geometry"/>
                </mxCell>
                <mxCell id="QE186DLQYvyTarsqXEFY-56" value="" style="rounded=0;whiteSpace=wrap;html=1;fillColor=#DEF2DD;strokeColor=#B4C4B3;strokeWidth=0.5;" parent="36" vertex="1">
                    <mxGeometry x="362.35294117647055" y="2" width="8.627450980392156" height="18" as="geometry"/>
                </mxCell>
                <mxCell id="QE186DLQYvyTarsqXEFY-57" value="" style="rounded=0;whiteSpace=wrap;html=1;fillColor=#DEF2DD;strokeColor=#B4C4B3;strokeWidth=0.5;" parent="36" vertex="1">
                    <mxGeometry x="370.9803921568627" y="2" width="8.627450980392156" height="18" as="geometry"/>
                </mxCell>
                <mxCell id="QE186DLQYvyTarsqXEFY-58" value="" style="rounded=0;whiteSpace=wrap;html=1;fillColor=#DEF2DD;strokeColor=#B4C4B3;strokeWidth=0.5;" parent="36" vertex="1">
                    <mxGeometry x="310.5882352941176" y="2.5" width="8.627450980392156" height="17.5" as="geometry"/>
                </mxCell>
                <mxCell id="QE186DLQYvyTarsqXEFY-59" value="" style="rounded=0;whiteSpace=wrap;html=1;fillColor=#DEF2DD;strokeColor=#B4C4B3;strokeWidth=0.5;" parent="36" vertex="1">
                    <mxGeometry x="319.2156862745098" y="2.5" width="8.627450980392156" height="17.5" as="geometry"/>
                </mxCell>
                <mxCell id="QE186DLQYvyTarsqXEFY-60" value="" style="rounded=0;whiteSpace=wrap;html=1;fillColor=#DEF2DD;strokeColor=#B4C4B3;strokeWidth=0.5;" parent="36" vertex="1">
                    <mxGeometry x="327.843137254902" y="2.5" width="8.627450980392156" height="17.5" as="geometry"/>
                </mxCell>
                <mxCell id="QE186DLQYvyTarsqXEFY-61" value="" style="rounded=0;whiteSpace=wrap;html=1;fillColor=#DEF2DD;strokeColor=#B4C4B3;strokeWidth=0.5;" parent="36" vertex="1">
                    <mxGeometry x="336.4705882352941" y="2.5" width="8.627450980392156" height="17.5" as="geometry"/>
                </mxCell>
                <mxCell id="QE186DLQYvyTarsqXEFY-62" value="" style="rounded=0;whiteSpace=wrap;html=1;fillColor=#DEF2DD;strokeColor=#B4C4B3;strokeWidth=0.5;" parent="36" vertex="1">
                    <mxGeometry x="276.078431372549" y="3.5" width="8.627450980392156" height="16.5" as="geometry"/>
                </mxCell>
                <mxCell id="QE186DLQYvyTarsqXEFY-63" value="" style="rounded=0;whiteSpace=wrap;html=1;fillColor=#DEF2DD;strokeColor=#B4C4B3;strokeWidth=0.5;" parent="36" vertex="1">
                    <mxGeometry x="284.70588235294116" y="3.5" width="8.627450980392156" height="16.5" as="geometry"/>
                </mxCell>
                <mxCell id="QE186DLQYvyTarsqXEFY-64" value="" style="rounded=0;whiteSpace=wrap;html=1;fillColor=#DEF2DD;strokeColor=#B4C4B3;strokeWidth=0.5;" parent="36" vertex="1">
                    <mxGeometry x="293.3333333333333" y="3.5" width="8.627450980392156" height="16.5" as="geometry"/>
                </mxCell>
                <mxCell id="QE186DLQYvyTarsqXEFY-65" value="" style="rounded=0;whiteSpace=wrap;html=1;fillColor=#DEF2DD;strokeColor=#B4C4B3;strokeWidth=0.5;" parent="36" vertex="1">
                    <mxGeometry x="301.96078431372547" y="3.5" width="8.627450980392156" height="16.5" as="geometry"/>
                </mxCell>
                <mxCell id="QE186DLQYvyTarsqXEFY-66" value="" style="rounded=0;whiteSpace=wrap;html=1;fillColor=#DEF2DD;strokeColor=#B4C4B3;strokeWidth=0.5;" parent="36" vertex="1">
                    <mxGeometry x="232.9411764705882" y="4" width="8.627450980392156" height="16" as="geometry"/>
                </mxCell>
                <mxCell id="QE186DLQYvyTarsqXEFY-67" value="" style="rounded=0;whiteSpace=wrap;html=1;fillColor=#DEF2DD;strokeColor=#B4C4B3;strokeWidth=0.5;" parent="36" vertex="1">
                    <mxGeometry x="241.56862745098036" y="4" width="8.627450980392156" height="16" as="geometry"/>
                </mxCell>
                <mxCell id="QE186DLQYvyTarsqXEFY-68" value="" style="rounded=0;whiteSpace=wrap;html=1;fillColor=#DEF2DD;strokeColor=#B4C4B3;strokeWidth=0.5;" parent="36" vertex="1">
                    <mxGeometry x="250.1960784313725" y="4" width="8.627450980392156" height="16" as="geometry"/>
                </mxCell>
                <mxCell id="QE186DLQYvyTarsqXEFY-69" value="" style="rounded=0;whiteSpace=wrap;html=1;fillColor=#DEF2DD;strokeColor=#B4C4B3;strokeWidth=0.5;" parent="36" vertex="1">
                    <mxGeometry x="258.8235294117647" y="4" width="8.627450980392156" height="16" as="geometry"/>
                </mxCell>
                <mxCell id="QE186DLQYvyTarsqXEFY-70" value="" style="rounded=0;whiteSpace=wrap;html=1;fillColor=#DEF2DD;strokeColor=#B4C4B3;strokeWidth=0.5;" parent="36" vertex="1">
                    <mxGeometry x="267.4509803921569" y="4" width="8.627450980392156" height="16" as="geometry"/>
                </mxCell>
                <mxCell id="QE186DLQYvyTarsqXEFY-71" value="" style="rounded=0;whiteSpace=wrap;html=1;fillColor=#DEF2DD;strokeColor=#B4C4B3;strokeWidth=0.5;" parent="36" vertex="1">
                    <mxGeometry x="94.90196078431373" y="8" width="8.627450980392156" height="12" as="geometry"/>
                </mxCell>
                <mxCell id="QE186DLQYvyTarsqXEFY-72" value="" style="rounded=0;whiteSpace=wrap;html=1;fillColor=#DEF2DD;strokeColor=#B4C4B3;strokeWidth=0.5;" parent="36" vertex="1">
                    <mxGeometry x="103.52941176470587" y="8" width="8.627450980392156" height="12" as="geometry"/>
                </mxCell>
                <mxCell id="QE186DLQYvyTarsqXEFY-73" value="" style="rounded=0;whiteSpace=wrap;html=1;fillColor=#DEF2DD;strokeColor=#B4C4B3;strokeWidth=0.5;" parent="36" vertex="1">
                    <mxGeometry x="112.15686274509804" y="8" width="8.627450980392156" height="12" as="geometry"/>
                </mxCell>
                <mxCell id="QE186DLQYvyTarsqXEFY-74" value="" style="rounded=0;whiteSpace=wrap;html=1;fillColor=#DEF2DD;strokeColor=#B4C4B3;strokeWidth=0.5;" parent="36" vertex="1">
                    <mxGeometry x="120.78431372549018" y="8" width="8.627450980392156" height="12" as="geometry"/>
                </mxCell>
                <mxCell id="QE186DLQYvyTarsqXEFY-75" value="" style="group;fillColor=#DEF2DD;strokeColor=#B4C4B3;container=0;strokeWidth=0.5;" parent="36" vertex="1" connectable="0">
                    <mxGeometry x="129.41176470588235" y="6.5" width="43.13725490196078" height="13.5" as="geometry"/>
                </mxCell>
                <mxCell id="QE186DLQYvyTarsqXEFY-76" value="" style="rounded=0;whiteSpace=wrap;html=1;fillColor=#DEF2DD;strokeColor=#B4C4B3;strokeWidth=0.5;" parent="36" vertex="1">
                    <mxGeometry x="129.41176470588235" y="6.5" width="8.627450980392156" height="13.5" as="geometry"/>
                </mxCell>
                <mxCell id="QE186DLQYvyTarsqXEFY-77" value="" style="rounded=0;whiteSpace=wrap;html=1;fillColor=#DEF2DD;strokeColor=#B4C4B3;strokeWidth=0.5;" parent="36" vertex="1">
                    <mxGeometry x="138.0392156862745" y="6.5" width="8.627450980392156" height="13.5" as="geometry"/>
                </mxCell>
                <mxCell id="QE186DLQYvyTarsqXEFY-78" value="" style="rounded=0;whiteSpace=wrap;html=1;fillColor=#DEF2DD;strokeColor=#B4C4B3;strokeWidth=0.5;" parent="36" vertex="1">
                    <mxGeometry x="146.66666666666666" y="6.5" width="8.627450980392156" height="13.5" as="geometry"/>
                </mxCell>
                <mxCell id="QE186DLQYvyTarsqXEFY-79" value="" style="rounded=0;whiteSpace=wrap;html=1;fillColor=#DEF2DD;strokeColor=#B4C4B3;strokeWidth=0.5;" parent="36" vertex="1">
                    <mxGeometry x="155.2941176470588" y="6.5" width="8.627450980392156" height="13.5" as="geometry"/>
                </mxCell>
                <mxCell id="QE186DLQYvyTarsqXEFY-80" value="" style="rounded=0;whiteSpace=wrap;html=1;fillColor=#DEF2DD;strokeColor=#B4C4B3;strokeWidth=0.5;" parent="36" vertex="1">
                    <mxGeometry x="163.921568627451" y="6.5" width="8.627450980392156" height="13.5" as="geometry"/>
                </mxCell>
                <mxCell id="QE186DLQYvyTarsqXEFY-81" value="" style="rounded=0;whiteSpace=wrap;html=1;fillColor=#DEF2DD;strokeColor=#B4C4B3;strokeWidth=0.5;" parent="36" vertex="1">
                    <mxGeometry x="25.882352941176467" y="12" width="8.627450980392156" height="8" as="geometry"/>
                </mxCell>
                <mxCell id="QE186DLQYvyTarsqXEFY-82" value="" style="rounded=0;whiteSpace=wrap;html=1;fillColor=#DEF2DD;strokeColor=#B4C4B3;strokeWidth=0.5;" parent="36" vertex="1">
                    <mxGeometry x="34.509803921568626" y="12" width="8.627450980392156" height="8" as="geometry"/>
                </mxCell>
                <mxCell id="QE186DLQYvyTarsqXEFY-83" value="" style="rounded=0;whiteSpace=wrap;html=1;fillColor=#DEF2DD;strokeColor=#B4C4B3;strokeWidth=0.5;" parent="36" vertex="1">
                    <mxGeometry x="43.13725490196078" y="12" width="8.627450980392156" height="8" as="geometry"/>
                </mxCell>
                <mxCell id="QE186DLQYvyTarsqXEFY-84" value="" style="group;fillColor=#DEF2DD;strokeColor=#B4C4B3;container=0;strokeWidth=0.5;" parent="36" vertex="1" connectable="0">
                    <mxGeometry x="51.764705882352935" y="11" width="25.882352941176467" height="9" as="geometry"/>
                </mxCell>
                <mxCell id="QE186DLQYvyTarsqXEFY-85" value="" style="rounded=0;whiteSpace=wrap;html=1;fillColor=#DEF2DD;strokeColor=#B4C4B3;strokeWidth=0.5;" parent="36" vertex="1">
                    <mxGeometry x="51.764705882352935" y="11" width="8.627450980392156" height="9" as="geometry"/>
                </mxCell>
                <mxCell id="QE186DLQYvyTarsqXEFY-86" value="" style="rounded=0;whiteSpace=wrap;html=1;fillColor=#DEF2DD;strokeColor=#B4C4B3;strokeWidth=0.5;" parent="36" vertex="1">
                    <mxGeometry x="60.39215686274509" y="11" width="8.627450980392156" height="9" as="geometry"/>
                </mxCell>
                <mxCell id="QE186DLQYvyTarsqXEFY-87" value="" style="rounded=0;whiteSpace=wrap;html=1;fillColor=#DEF2DD;strokeColor=#B4C4B3;strokeWidth=0.5;" parent="36" vertex="1">
                    <mxGeometry x="69.01960784313725" y="11" width="8.627450980392156" height="9" as="geometry"/>
                </mxCell>
                <mxCell id="35" value="" style="whiteSpace=wrap;html=1;fillColor=#D5E8D455;strokeColor=#82b366;sketch=0;" vertex="1" parent="36">
                    <mxGeometry width="440" height="20" as="geometry"/>
                </mxCell>
                <mxCell id="4" value="n" style="text;html=1;align=center;verticalAlign=middle;resizable=0;points=[];autosize=1;strokeColor=none;fillColor=none;fontFamily=Courier New;sketch=1;fontStyle=1" parent="1" vertex="1">
                    <mxGeometry x="520" y="100" width="20" height="20" as="geometry"/>
                </mxCell>
                <mxCell id="6" value="&lt;font face=&quot;Courier New&quot; style=&quot;font-size: 14px;&quot;&gt;g&lt;/font&gt;" style="text;html=1;align=center;verticalAlign=middle;resizable=0;points=[];autosize=1;strokeColor=none;fillColor=none;sketch=1;fontStyle=1;fontSize=14;fontColor=#990000;" parent="1" vertex="1">
                    <mxGeometry x="78" y="54" width="20" height="20" as="geometry"/>
                </mxCell>
                <mxCell id="7" value="&lt;font face=&quot;Courier New&quot; style=&quot;font-size: 14px;&quot;&gt;d&lt;/font&gt;" style="text;html=1;align=center;verticalAlign=middle;resizable=0;points=[];autosize=1;strokeColor=none;fillColor=none;sketch=1;fontStyle=1;fontSize=14;fontColor=#990000;" parent="1" vertex="1">
                    <mxGeometry x="502" y="54" width="20" height="20" as="geometry"/>
                </mxCell>
                <mxCell id="21" style="edgeStyle=orthogonalEdgeStyle;html=1;curved=1;fillColor=#f8cecc;strokeColor=#b85450;shadow=1;" parent="1" source="20" target="8" edge="1">
                    <mxGeometry relative="1" as="geometry"/>
                </mxCell>
                <mxCell id="28" style="edgeStyle=orthogonalEdgeStyle;html=1;fontColor=#990000;curved=1;fillColor=#f8cecc;strokeColor=#b85450;shadow=1;" parent="1" source="20" target="26" edge="1">
                    <mxGeometry relative="1" as="geometry"/>
                </mxCell>
                <mxCell id="20" value="portion du tableau à explorer" style="text;html=1;align=center;verticalAlign=middle;resizable=0;points=[];autosize=1;strokeColor=#b85450;fillColor=#f8cecc;fontFamily=Helvetica;shadow=1;" parent="1" vertex="1">
                    <mxGeometry x="215.23999999999998" y="130" width="170" height="20" as="geometry"/>
                </mxCell>
                <mxCell id="22" value="initialement" style="text;html=1;align=right;verticalAlign=middle;resizable=0;points=[];autosize=1;strokeColor=none;fillColor=none;fontColor=#000000;" parent="1" vertex="1">
                    <mxGeometry x="-19" y="80.67" width="80" height="20" as="geometry"/>
                </mxCell>
                <mxCell id="24" value="&lt;font face=&quot;Courier New&quot; style=&quot;font-size: 14px;&quot;&gt;g&lt;/font&gt;" style="text;html=1;align=center;verticalAlign=middle;resizable=0;points=[];autosize=1;strokeColor=none;fillColor=none;sketch=1;fontStyle=1;fontSize=14;fontColor=#990000;" parent="1" vertex="1">
                    <mxGeometry x="195.23999999999998" y="167.04999999999998" width="20" height="20" as="geometry"/>
                </mxCell>
                <mxCell id="25" value="&lt;font face=&quot;Courier New&quot; style=&quot;font-size: 14px;&quot;&gt;d&lt;/font&gt;" style="text;html=1;align=center;verticalAlign=middle;resizable=0;points=[];autosize=1;strokeColor=none;fillColor=none;sketch=1;fontStyle=1;fontSize=14;fontColor=#990000;" parent="1" vertex="1">
                    <mxGeometry x="385.24" y="167.04999999999998" width="20" height="20" as="geometry"/>
                </mxCell>
                <mxCell id="26" value="" style="whiteSpace=wrap;html=1;fontFamily=Courier New;sketch=1;fillColor=#f8cecc;strokeColor=#b85450;rotation=90;shadow=1;" parent="1" vertex="1">
                    <mxGeometry x="286.06" y="99.21" width="28.37" height="204.34" as="geometry"/>
                </mxCell>
                <mxCell id="27" value="après plusieurs&lt;br&gt;étapes" style="text;html=1;align=right;verticalAlign=middle;resizable=0;points=[];autosize=1;strokeColor=none;fillColor=none;fontColor=#000000;" parent="1" vertex="1">
                    <mxGeometry x="-39" y="187.05" width="100" height="30" as="geometry"/>
                </mxCell>
                <mxCell id="29" value="&lt;font face=&quot;Courier New&quot;&gt;0&lt;/font&gt;" style="text;html=1;align=center;verticalAlign=middle;resizable=0;points=[];autosize=1;strokeColor=none;fillColor=none;sketch=1;fontStyle=1" parent="1" vertex="1">
                    <mxGeometry x="80" y="211.38" width="20" height="20" as="geometry"/>
                </mxCell>
                <mxCell id="30" value="n" style="text;html=1;align=center;verticalAlign=middle;resizable=0;points=[];autosize=1;strokeColor=none;fillColor=none;fontFamily=Courier New;sketch=1;fontStyle=1" parent="1" vertex="1">
                    <mxGeometry x="520" y="211.38" width="20" height="20" as="geometry"/>
                </mxCell>
                <mxCell id="31" value="$$valeurs &amp;lt; \texttt{elem}$$" style="text;html=1;align=center;verticalAlign=middle;resizable=0;points=[];autosize=1;strokeColor=none;fillColor=none;fontFamily=Helvetica;sketch=1;" parent="1" vertex="1">
                    <mxGeometry x="55.24" y="175.05" width="160" height="20" as="geometry"/>
                </mxCell>
                <mxCell id="32" value="$$\texttt{elem} &amp;lt; valeurs$$" style="text;html=1;align=center;verticalAlign=middle;resizable=0;points=[];autosize=1;strokeColor=none;fillColor=none;fontFamily=Helvetica;sketch=1;" parent="1" vertex="1">
                    <mxGeometry x="380" y="175.05" width="160" height="20" as="geometry"/>
                </mxCell>
                <mxCell id="33" value="........" style="text;html=1;align=right;verticalAlign=middle;resizable=0;points=[];autosize=1;strokeColor=none;fillColor=none;fontColor=#000000;horizontal=0;" parent="1" vertex="1">
                    <mxGeometry x="21" y="135" width="40" height="20" as="geometry"/>
                </mxCell>
                <mxCell id="3" value="&lt;font face=&quot;Courier New&quot;&gt;0&lt;/font&gt;" style="text;html=1;align=center;verticalAlign=middle;resizable=0;points=[];autosize=1;strokeColor=none;fillColor=none;sketch=1;fontStyle=1" parent="1" vertex="1">
                    <mxGeometry x="80" y="100" width="20" height="20" as="geometry"/>
                </mxCell>
            </root>
        </mxGraphModel>
    </diagram>
</mxfile>